<?xml version="1.0" encoding="utf-8"?>
<!-- Generator: Adobe Illustrator 21.0.0, SVG Export Plug-In . SVG Version: 6.00 Build 0)  -->
<svg version="1.1" id="Layer_1" xmlns="http://www.w3.org/2000/svg" xmlns:xlink="http://www.w3.org/1999/xlink" x="0px" y="0px"
	 viewBox="0 0 792.7 303.3" style="enable-background:new 0 0 792.7 303.3;" xml:space="preserve">
<style type="text/css">
	.st0{fill:#7BBB10;}
	.st1{fill:#7CBD12;}
	.st2{fill:#7BBC10;}
	.st3{fill:#7CBC11;}
	.st4{fill:#333030;}
	.st5{fill:#32302F;}
	.st6{fill:#33302F;}
	.st7{fill:#322F2F;}
	.st8{fill:#F8F8F8;}
	.st9{fill:#FFFFFF;}
	.st10{fill:#84B825;}
	.st11{fill:none;}
</style>
<g>
	<path class="st0" d="M178.2,109.1c4.7,2.8,9.4,5.8,14.2,8.5c3,1.7,4.3,3.9,4.3,7.4c-0.1,14.1-0.1,28.3,0,42.4
		c0,3.5-1.4,5.7-4.3,7.4c-11.1,6.3-22.2,12.8-33.3,19.2c-1.1,0.6-2.2,1.4-3.3,2.1c-1.2,1.8-3,2.4-4.9,2.1c-2.2-0.3-2.7,0.7-2.6,2.6
		c0,4.9,0.1,9.9,0,14.8c0,1.5,0.3,3.1-1.2,4.2c-0.1-6.9-0.3-13.8-0.2-20.8c0-2.6-0.8-4.1-3.1-5.2c-4-1.9-7.5-4.7-11.7-6.3
		c-3-0.7-5.5-2.4-7.7-4.4c-4.1-3.4-9-5.5-13.5-8.2c-3.2-1.8-4.6-4.3-4.6-8c0.1-14.1,0-28.2-0.1-42.3c-1-3.6,0.3-5.8,4.6-7.6
		c5.1-1.8,9.5-5.1,14.2-7.7c7.5-4.2,14.9-8.5,22.3-12.9c2.9-1.8,5.6-1.9,8.5-0.1c4.8,2.9,9.8,5.5,14.7,8.3
		C173.5,105.2,176.1,106.8,178.2,109.1z"/>
	<path class="st1" d="M64.1,102.5c-7,3.2-13.4,7.4-20,11.2c-2.6,1.5-4.6,1.5-7.1,0c-6.9-4.2-14-8.2-21.1-12.2
		c-2.2-1.2-3.2-2.7-3.2-5.3c0.1-8.4,0.1-16.7,0-25.1c0-2.4,0.8-3.9,2.9-5.1c7.4-4.2,14.7-8.4,22-12.7c2.1-1.2,3.8-1.2,5.9,0
		c7.2,4.3,14.4,8.4,21.7,12.5c2.4,1.3,3.2,3,3.2,5.7c-0.1,7.8,0.1,15.5,0.1,23.3C70.1,98.8,68.6,101.2,64.1,102.5z"/>
	<path class="st2" d="M197.5,64.1c-0.9-0.6-1.7-1.2-2.6-1.8c-8.9-5.4-7.3-2.4-7.4-13c-0.1-6.4,0.1-12.7-0.1-19.1
		c0-2.3,0.7-3.7,2.7-4.8c7.2-4,14.3-8.2,21.4-12.4c1.9-1.1,3.6-1.2,5.6,0c7.1,4.2,14.2,8.3,21.4,12.4c2,1.1,2.8,2.5,2.8,4.8
		c-0.1,8.3-0.1,16.5,0,24.8c0,2.3-0.9,3.7-2.9,4.8c-6.9,3.9-13.8,7.7-20.5,11.9c-2.7,1.7-4.9,1.7-7.5-0.1c-1.6-1.1-3.5-1.9-5.2-2.9
		C202.2,68,199.6,66.5,197.5,64.1z"/>
	<path class="st3" d="M155.9,238.9c-0.7,4.7,2.1,6.8,5.8,8.7c3.8,1.9,7.4,4.2,11.1,6.3c1.9,1,2.7,2.4,2.7,4.5
		c-0.1,7.3-0.1,14.6,0,22c0,2-0.8,3.3-2.5,4.3c-6.5,3.7-12.9,7.4-19.3,11.2c-1.6,0.9-3,0.9-4.6,0c-6.5-3.8-13.1-7.6-19.6-11.3
		c-1.6-0.9-2.2-2.2-2.2-4.1c0.1-7.4,0.1-14.9,0-22.3c0-2,0.9-3.2,2.6-4.2c5.8-3.4,11.6-6.8,17.3-10.2c1-1.4,2.6-2.6,4.1-2.1
		C154,242.3,155,240.8,155.9,238.9z"/>
	<path class="st4" d="M197.5,64.1c2.8,1.2,5.3,2.7,7.8,4.5c-9,13.5-18.1,27-27.1,40.5c-2.8-1.1-5.4-2.7-7.8-4.4
		C179.4,91.2,188.5,77.6,197.5,64.1z"/>
	<path class="st5" d="M124.3,183.1c2.9,0.9,5.4,2.5,7.7,4.4c-8.7,13.1-17.5,26.1-26.2,39.2c-3.4,0-6.1-1.3-7.8-4.5
		C106.8,209.2,115.5,196.1,124.3,183.1z"/>
	<path class="st6" d="M64.1,102.5c2.8-1.8,5.1-3.9,4.5-7.7c14,7.4,28,14.8,42.1,22.2c-2.3,2.1-4.9,4-4.6,7.6
		C92.1,117.3,78.1,109.9,64.1,102.5z"/>
	<path class="st1" d="M98.1,222.3c2.3,1.9,5,3.3,7.8,4.4c2.8,1.6,3.5,4,3.3,7.1c-0.2,3.2-0.3,6.4,0,9.5c0.3,3.4-0.8,5.5-3.9,7
		c-3.5,1.7-6.8,3.8-10.1,5.8c-1.7,1-3.2,1-4.9,0c-3.8-2.3-7.7-4.6-11.6-6.7c-1.8-1-2.4-2.3-2.4-4.3c0.1-4.5,0.1-8.9,0-13.4
		c0-2,0.7-3.3,2.5-4.2c2.5-1.3,5-2.6,7.3-4.3C89.9,220.4,93.8,219,98.1,222.3z"/>
	<path class="st7" d="M155.9,238.9c0,0.7-0.2,1.4-0.1,2.1c0.1,2-0.3,3.1-2.4,1.7c-2.4-1.6-4.1,0.5-6.2,1c-0.1-8-0.1-15.9-0.2-23.9
		c0-7.7,0-15.4,0-23.6c3.2,1.5,6,1.4,8.7-0.1C155.8,210.4,155.9,224.7,155.9,238.9z"/>
	<path class="st8" d="M186.7,146.1c0,5.9-0.1,11.8,0,17.7c0,1.9-0.6,3-2.2,3.9c-10.4,5.9-20.7,11.8-31,17.8c-1.5,0.9-2.6,0.9-4.1,0
		c-10.3-6-20.6-12-31-17.8c-1.6-0.9-2.2-2-2.2-3.9c0.1-11.8,0.1-23.6,0-35.4c0-1.8,0.5-2.8,2.1-3.7c10.3-5.9,20.7-11.8,30.9-17.9
		c1.6-1,2.9-0.9,4.5,0c10.3,6,20.6,12,30.9,17.9c1.6,0.9,2.1,1.9,2,3.7C186.6,134.3,186.7,140.2,186.7,146.1z"/>
	<path class="st8" d="M64.3,83.8c0,3.7-0.1,7.3,0,11c0.1,1.9-0.6,3-2.3,3.9c-6.6,3.7-13.1,7.5-19.6,11.3c-1.4,0.8-2.4,0.8-3.8,0
		c-6.5-3.8-13-7.6-19.6-11.3c-1.5-0.8-2.2-1.7-2.2-3.5c0.1-7.7,0.1-15.3,0-23c0-1.5,0.5-2.4,1.8-3.1c6.8-3.8,13.5-7.7,20.2-11.7
		c1.3-0.8,2.3-0.7,3.6,0c6.6,3.9,13.2,7.7,19.9,11.5c1.6,0.9,2.1,1.9,2,3.7C64.3,76.2,64.3,80,64.3,83.8z"/>
	<path class="st8" d="M237.2,43.2c-0.3,3.6,1.6,8.9-0.7,12.3c-2.2,3.3-7.2,4.7-10.9,6.9c-1.4,0.8-3,1.5-4.3,2.5
		c-4.7,4-9.1,3.9-14.1,0.1c-4.1-3.1-8.9-5.3-13.4-7.9c-1.7-0.9-2.6-2-2.6-4.1c0.1-7.1,0.1-14.2,0-21.2c0-1.9,0.7-3,2.3-3.9
		c6.1-3.4,12.1-6.9,18.1-10.4c1.8-1.1,3.2-1.2,5.1-0.1c5.8,3.6,11.8,7,17.8,10.2c2.1,1.1,2.8,2.5,2.6,4.8
		C237.1,35.8,237.2,39.1,237.2,43.2z"/>
	<path class="st8" d="M170.9,269.7c3.4,9.2-1.6,13.7-9.2,16.9c-3.5,1.5-6.8,5.2-10.2,5.2c-3.4,0-6.6-3.8-10.2-5.1
		c-8.3-3-10.4-8.5-10.2-17.2c0.1-8.6,1.6-14.5,10.3-17.6c3.6-1.3,6.6-5.3,10.2-5.1c3.4,0.2,6.4,3.7,9.9,5.1
		C169.6,255.2,174.1,260.4,170.9,269.7z"/>
	<path class="st8" d="M80,238.7c0.6-2.7-1.2-6,1-7.6c3.5-2.7,7.7-6.2,11.5-6.2c3.9,0,8.4,3.2,11.5,6.2c2.7,2.5,0.6,6.9,0.9,10.5
		c0.1,1.4,0.8,3.4-0.6,4.3c-3.7,2.4-7.6,6-11.6,6.3c-4,0.3-7.9-3.6-11.6-6.1C78.6,244.3,81,240.9,80,238.7z"/>
</g>
<path class="st9" d="M504.8,106.5c0,13-0.1,26,0.1,39c0,3.4-1.1,5.5-4.1,7.1c-8.3,4.6-16.5,9.3-24.6,14.2c-2.8,1.7-5,1.7-7.8,0
	c-8.1-4.9-16.3-9.6-24.6-14.2c-2.8-1.6-4-3.4-4-6.7c0.2-9.5,0.2-19,0-28.5c-0.1-3.4,1-5.5,4.1-7.1c7.4-4,14.9-8.1,22-12.8
	c4.5-2.9,8.1-3.3,12.6-0.2c4.4,3,4.6,2.7,4.6-2.7c0-12.5,0-25,0-37.5c0-5.9,0.5-6.2,5.9-3.2c4.1,2.3,8.1,4.6,12.2,6.8
	c2.7,1.4,3.7,3.3,3.7,6.4C504.7,80.2,504.8,93.4,504.8,106.5z"/>
<path class="st10" d="M417.9,133.6c4.1,12.3-4.2,18.6-15.7,25.7c-12.3,7.6-22.2,9.3-33.2-0.4c-1.2-1.1-2.8-2-4.3-2.5
	c-10.2-3.4-13.2-10.4-11.9-20.7c0.8-6.4,0.2-13,0.1-19.5c-0.1-2.8,0.7-4.7,3.3-6.1c8.6-4.8,17.1-9.7,25.5-14.7
	c2.6-1.5,4.8-1.6,7.4,0c8.4,5,16.9,9.9,25.5,14.7c2.6,1.4,3.4,3.3,3.3,6.1C417.8,121.2,417.9,126.2,417.9,133.6z"/>
<path class="st9" d="M266.3,135.5c0-6.7,0.1-13.3,0-20c-0.1-2.7,0.8-4.3,3.2-5.6c8.7-4.9,17.4-9.8,26-14.9c2.3-1.3,4.1-1.4,6.4,0
	c8.6,5.1,17.2,10.1,25.9,14.9c2.5,1.4,3.4,3.2,3.4,6.1c-0.1,13.5-0.1,27,0,40.5c0,3.9-1.1,5-4.6,2.8c-4.4-2.7-8.9-5.3-13.4-7.7
	c-2.7-1.4-3.8-3.3-3.7-6.4c0.1-5.7,0.1-11.3,0-17c-0.1-5.6-8.7-10.4-13.9-8.2c-5.7,2.5-8.9,6.1-7.5,12.6
	c2.7,12.9-2.5,21.2-14.8,25.3c-0.6,0.2-1.2,0.7-1.7,1c-4.5,2.5-5,2.2-5-2.9C266.3,149.1,266.3,142.3,266.3,135.5
	C266.3,135.5,266.3,135.5,266.3,135.5z"/>
<path class="st9" d="M526.3,131.2c-4.5-15.3,3.5-23.3,16.5-28.5c1.8-0.7,3.7-1.7,5.2-3c7.3-6.1,14.1-6,21.7-0.1
	c5.4,4.1,11.7,7,17.6,10.4c5.5,3.3,5.7,13.3,0.2,16.5c-4.4,2.6-9,5.1-13.4,7.8c-3.3,2-4.8,1.4-4.8-2.7c-0.1-6.5-3.9-11.1-9.8-12.5
	c-1.3-0.3-10.5,4.3-11.3,5.7c-2.2,3.8,0.3,12.8,4.3,15.1c7.7,4.4,15.3,8.8,22.9,13.2c4.3,2.5,4.3,3.3-0.1,5.8
	c-4.3,2.5-8.8,4.8-13.1,7.3c-2.6,1.6-4.8,1.4-7.4-0.1c-8.2-4.8-16.4-9.5-24.7-14.1c-2.9-1.6-4-3.6-3.9-6.8
	C526.4,140.6,526.3,135.9,526.3,131.2z"/>
<g>
	<path class="st9" d="M268.8,203.1h6.6v24.7h0.2c1.4-2,2.7-3.8,4-5.5l15.7-19.2h8.2L285,224.8l20,29.5h-7.8l-16.9-25.2l-4.9,5.6
		v19.5h-6.6V203.1z"/>
	<path class="st9" d="M310.5,227.5c0-3.8-0.1-6.9-0.3-10h5.9l0.4,6.1h0.2c1.8-3.5,6.1-6.9,12.2-6.9c5.1,0,13,3,13,15.7v22h-6.7
		v-21.2c0-5.9-2.2-10.9-8.5-10.9c-4.4,0-7.8,3.1-9,6.8c-0.3,0.8-0.5,2-0.5,3.1v22.1h-6.7V227.5z"/>
	<path class="st9" d="M386,235.6c0,13.6-9.4,19.5-18.3,19.5c-10,0-17.6-7.3-17.6-18.9c0-12.3,8.1-19.5,18.2-19.5
		C378.8,216.7,386,224.4,386,235.6z M356.8,236c0,8.1,4.6,14.1,11.2,14.1c6.4,0,11.2-6,11.2-14.3c0-6.2-3.1-14.1-11-14.1
		C360.2,221.7,356.8,229,356.8,236z"/>
	<path class="st9" d="M396.5,217.5l4.9,18.7c1.1,4.1,2.1,7.9,2.7,11.7h0.2c0.8-3.7,2.1-7.7,3.3-11.6l6-18.8h5.6l5.7,18.4
		c1.4,4.4,2.4,8.3,3.3,12h0.2c0.6-3.7,1.6-7.6,2.8-11.9l5.2-18.5h6.6l-11.9,36.8h-6.1l-5.6-17.6c-1.3-4.1-2.4-7.8-3.3-12.1h-0.2
		c-0.9,4.4-2.1,8.2-3.3,12.2l-5.9,17.5h-6.1l-11.1-36.8H396.5z"/>
	<path class="st9" d="M449.8,200.4h6.7v54h-6.7V200.4z"/>
	<path class="st9" d="M471.5,237.2c0.2,9,5.9,12.8,12.6,12.8c4.8,0,7.7-0.8,10.2-1.9l1.1,4.8c-2.4,1.1-6.4,2.3-12.2,2.3
		c-11.3,0-18.1-7.4-18.1-18.5s6.5-19.8,17.3-19.8c12,0,15.2,10.6,15.2,17.3c0,1.4-0.2,2.4-0.2,3.1H471.5z M491.1,232.4
		c0.1-4.3-1.7-10.9-9.3-10.9c-6.8,0-9.7,6.2-10.3,10.9H491.1z"/>
	<path class="st9" d="M537.6,200.4v44.5c0,3.3,0.1,7,0.3,9.5h-6l-0.3-6.4h-0.2c-2.1,4.1-6.5,7.2-12.5,7.2c-8.9,0-15.7-7.5-15.7-18.7
		c-0.1-12.2,7.5-19.8,16.5-19.8c5.6,0,9.4,2.7,11.1,5.6h0.2v-22H537.6z M530.9,232.5c0-0.8-0.1-2-0.3-2.8c-1-4.3-4.6-7.8-9.7-7.8
		c-6.9,0-11,6.1-11,14.2c0,7.4,3.6,13.6,10.9,13.6c4.5,0,8.6-3,9.8-8c0.2-0.9,0.3-1.8,0.3-2.9V232.5z"/>
	<path class="st9" d="M580.4,217.5c-0.2,2.7-0.3,5.6-0.3,10.1V249c0,8.4-1.7,13.6-5.2,16.8c-3.6,3.3-8.7,4.4-13.4,4.4
		c-4.4,0-9.3-1.1-12.2-3l1.7-5.1c2.4,1.5,6.2,2.9,10.8,2.9c6.8,0,11.9-3.6,11.9-12.8V248h-0.2c-2.1,3.4-6,6.2-11.7,6.2
		c-9.1,0-15.7-7.8-15.7-17.9c0-12.5,8.1-19.5,16.6-19.5c6.4,0,9.9,3.3,11.5,6.4h0.2l0.3-5.5H580.4z M573.5,232.1
		c0-1.1-0.1-2.1-0.4-3c-1.2-3.9-4.5-7.1-9.3-7.1c-6.4,0-10.9,5.4-10.9,13.9c0,7.2,3.6,13.2,10.9,13.2c4.1,0,7.8-2.6,9.3-6.8
		c0.4-1.1,0.5-2.4,0.5-3.6V232.1z"/>
	<path class="st9" d="M594.9,237.2c0.2,9,5.9,12.8,12.6,12.8c4.8,0,7.7-0.8,10.2-1.9l1.1,4.8c-2.4,1.1-6.4,2.3-12.2,2.3
		c-11.3,0-18.1-7.4-18.1-18.5s6.5-19.8,17.3-19.8c12,0,15.2,10.6,15.2,17.3c0,1.4-0.2,2.4-0.2,3.1H594.9z M614.5,232.4
		c0.1-4.3-1.7-10.9-9.3-10.9c-6.8,0-9.7,6.2-10.3,10.9H614.5z"/>
	<path class="st9" d="M628.9,254.3c0.2-2.5,0.3-6.2,0.3-9.5v-44.5h6.6v23.1h0.2c2.4-4.1,6.6-6.8,12.5-6.8c9.1,0,15.6,7.6,15.5,18.8
		c0,13.1-8.3,19.7-16.5,19.7c-5.3,0-9.6-2.1-12.3-6.9H635l-0.3,6.1H628.9z M635.9,239.6c0,0.8,0.2,1.7,0.3,2.4
		c1.3,4.6,5.2,7.8,10,7.8c7,0,11.2-5.7,11.2-14.1c0-7.4-3.8-13.7-10.9-13.7c-4.6,0-8.8,3.1-10.2,8.2c-0.2,0.8-0.4,1.7-0.4,2.7V239.6
		z"/>
	<path class="st9" d="M692.9,254.3l-0.5-4.6h-0.2c-2.1,2.9-6,5.5-11.2,5.5c-7.4,0-11.2-5.2-11.2-10.6c0-8.9,7.9-13.8,22.1-13.7v-0.8
		c0-3-0.8-8.5-8.4-8.5c-3.4,0-7,1.1-9.6,2.7l-1.5-4.4c3-2,7.4-3.3,12.1-3.3c11.2,0,14,7.7,14,15v13.8c0,3.2,0.2,6.3,0.6,8.8H692.9z
		 M691.9,235.6c-7.3-0.2-15.6,1.1-15.6,8.3c0,4.3,2.9,6.4,6.3,6.4c4.8,0,7.8-3,8.9-6.2c0.2-0.7,0.4-1.4,0.4-2.1V235.6z"/>
	<path class="st9" d="M708.2,247.5c2,1.3,5.5,2.7,8.8,2.7c4.9,0,7.1-2.4,7.1-5.5c0-3.2-1.9-4.9-6.8-6.8c-6.6-2.4-9.7-6-9.7-10.4
		c0-5.9,4.8-10.8,12.7-10.8c3.7,0,7,1.1,9,2.3l-1.7,4.9c-1.4-0.9-4.1-2.1-7.5-2.1c-4,0-6.2,2.3-6.2,5c0,3,2.2,4.4,7,6.2
		c6.4,2.4,9.7,5.6,9.7,11.1c0,6.5-5,11-13.8,11c-4,0-7.8-1-10.3-2.5L708.2,247.5z"/>
	<path class="st9" d="M742.9,237.2c0.2,9,5.9,12.8,12.6,12.8c4.8,0,7.7-0.8,10.2-1.9l1.1,4.8c-2.4,1.1-6.4,2.3-12.2,2.3
		c-11.3,0-18.1-7.4-18.1-18.5s6.5-19.8,17.3-19.8c12,0,15.2,10.6,15.2,17.3c0,1.4-0.2,2.4-0.2,3.1H742.9z M762.5,232.4
		c0.1-4.3-1.7-10.9-9.3-10.9c-6.8,0-9.7,6.2-10.3,10.9H762.5z"/>
</g>
<circle class="st11" cx="470.3" cy="134.7" r="8.7"/>
</svg>
